@startuml

class Main
'##########################################

package Components {
    note "Components are not allowed to have any dependencies." as ComponentsNote
    class AssetComponents
    class BulletComponents
    class CameraComponents
    class EnemyComponents
    class GenericComponents
    class LevelComponents
    class PlayerComponents
    class PhysicsComponents
    class WallComponents
}

'##########################################

package Events {
    note "Events are not allowed to have any dependencies." as EventsNote
    class BulletEvents
    class EnemySpawnEvents
}


'##########################################
package Plugins {
    class HeadBoxPlugin
    class MainMenuPlugin
    class GamePlugin
}
Main <-- HeadBoxPlugin
HeadBoxPlugin <-- MainMenuPlugin
HeadBoxPlugin <-- GamePlugin

'##########################################
note "States are not allowed to have any dependencies." as StatesNote
package States {
    class ScreenState
}
'##########################################
package Systems {
    note "Systems are not allowed to have hard dependencies on each other." as SystemsNote
    class ArenaSystems
    class AssetSystems
    class BulletSystems
    class CameraSystems
    class CollisionSystems
    class EnemySystems
    class GenericSystems
    class LevelSystems
    class PlayerSystems
}
'##########################################
package Utils {
    note "Utils are not allowed to have any dependencies." as UtilsNote
    class GenericConstants
    class PhysicsConstants
}
'##########################################

Plugins <-- Systems
Systems <-- Components
Events -> Systems
Events -> Plugins
Utils -> Systems
Utils -> Plugins
States -> Systems
States -> Plugins

@enduml